<svg xmlns="http://www.w3.org/2000/svg"
     viewBox="0 0 1024 1024"
     width="32" height="32">
  <!-- Fond marine pour contraste sur les onglets -->
  <rect width="1024" height="1024" rx="180" fill="#0A1628"/>
  <g transform="translate(0,1024) scale(0.1,-0.1)" fill="#E8A020" stroke="none">
    <path d="M4830 8079 c-507 -73 -831 -194 -1214 -453 -424 -288 -775 -727 -951
-1191 -116 -307 -167 -583 -169 -910 0 -192 9 -294 45 -484 74 -393 228 -739
478 -1071 97 -130 326 -366 446 -460 538 -423 1214 -628 1870 -566 342 32 647
116 930 255 798 393 1325 1118 1451 1996 27 183 24 488 -5 680 -24 158 -63
321 -112 470 -42 126 -38 122 -92 85 l-45 -32 20 -57 c35 -102 96 -354 115
-476 13 -92 17 -177 17 -360 -1 -212 -4 -257 -27 -385 -95 -530 -336 -986
-719 -1356 -373 -361 -817 -589 -1328 -681 -187 -34 -526 -43 -719 -19 -169
21 -256 38 -403 82 -284 83 -548 212 -783 382 -568 412 -931 1027 -1011 1718
-19 165 -14 480 11 637 81 516 318 979 692 1353 527 529 1257 797 1998 734
564 -48 1089 -282 1510 -674 l102 -95 37 38 c20 20 36 42 36 48 0 6 -33 41
-72 78 -294 273 -669 494 -1023 603 -289 89 -443 113 -765 117 -140 2 -284 -1
-320 -6z"/>
    <path d="M4805 7754 c-541 -73 -1006 -315 -1389 -724 -162 -173 -266 -325
-377 -555 -513 -1058 -92 -2346 956 -2928 179 -99 456 -204 635 -241 318 -65
668 -61 988 10 870 194 1559 893 1732 1754 93 461 47 904 -135 1325 l-18 40
-15 -40 c-14 -34 -17 -111 -18 -550 -1 -562 -9 -706 -49 -881 -10 -46 -267
-345 -283 -329 -3 2 -4 339 -3 747 l2 742 52 55 c29 31 118 130 197 221 79 91
203 228 275 305 71 77 154 167 183 199 l52 60 32 -29 c18 -16 54 -49 79 -73
41 -38 48 -42 52 -26 4 11 38 120 76 244 38 124 79 257 89 296 l20 71 -77 -32
c-87 -37 -420 -186 -529 -237 l-73 -35 83 -53 c46 -30 87 -57 91 -60 7 -7 -63
-94 -248 -307 -38 -45 -73 -82 -77 -82 -3 -1 -28 32 -54 72 -175 267 -403 500
-649 664 -320 213 -602 320 -996 377 -132 20 -462 20 -604 0z m435 -2240 l0
-1204 -230 2 -230 3 -3 1075 -2 1075 -367 3 -368 2 0 -380 0 -380 280 0 280 0
0 -145 0 -145 -280 0 -280 0 0 -555 0 -555 -237 2 -238 3 -3 180 c-2 99 -1
640 3 1202 l7 1023 827 2 c454 2 829 2 834 0 4 -2 7 -545 7 -1208z m1508 1200
l31 -6 -92 -102 c-50 -55 -213 -240 -362 -410 -148 -170 -321 -366 -383 -435
-62 -70 -110 -132 -107 -139 4 -11 83 -116 223 -297 47 -60 647 -852 713 -940
l47 -62 -76 -7 c-120 -10 -510 -7 -514 4 -8 24 -638 821 -841 1063 -59 71
-110 140 -113 153 -8 31 13 62 145 214 250 288 536 620 680 787 l156 183 231
0 c127 0 245 -3 262 -6z m-123 -1911 c-7 -30 -55 -31 -101 -3 -34 22 -122 118
-143 157 -7 15 -11 119 -11 336 l0 314 30 38 c16 20 73 86 127 146 l98 109 3
-538 c1 -295 0 -547 -3 -559z"/>
  </g>
</svg>
